<svg id="Capa_1" enable-background="new 0 0 512.034 512.034" fill="#ffffff" height="512" viewBox="0 0 512.034 512.034" width="512" xmlns="http://www.w3.org/2000/svg"><g id="XMLID_1_"><path d="m384.57 316.96c63.86-18.69 127.45 29.57 127.44 95.54 0 54.88-44.64 99.53-99.53 99.53-54.88 0-99.53-44.65-99.53-99.53 0-39.9 23.61-74.39 57.58-90.24l-5.43-14.44-94.72 81.08c4.72 6.68 7.5 14.82 7.5 23.6 0 20.08-14.5 36.83-33.57 40.36v17.66h8.88c4.14 0 7.5 3.36 7.5 7.5s-3.36 7.5-7.5 7.5h-32.76c-4.14 0-7.5-3.36-7.5-7.5s3.36-7.5 7.5-7.5h8.88v-17.66c-14.49-2.68-26.33-13-31.18-26.61-6.72 48.4-48.36 85.78-98.58 85.78-54.88 0-99.53-44.65-99.53-99.53 0-78.67 87.61-126.4 153.61-83.52l29.48-38.77-8.66-23.18c-3.11.96-6.3 1.44-9.46 1.44-9.23 0-18.27-3.98-24.4-11.53-14.18-17.45-1.12-41.12 19.24-41.12h43.91c10.36 0 20.56 3.53 28.7 9.94 9.08 7.14 4.79 21.74-6.72 22.83-20.18 1.92-22.58 1.58-27.64 4.8l-10.28 6.53 8.76 23.45 153.07-16.69-14.06-37.38c-.86-2.31-.54-4.89.86-6.91s3.7-3.23 6.16-3.23h30.75l13.86-22.57c2.17-3.53 6.79-4.63 10.32-2.47 3.53 2.17 4.63 6.79 2.46 10.32l-16.05 26.14c-1.36 2.23-3.78 3.58-6.39 3.58h-24.11zm27.91 180.07c46.62 0 84.54-37.92 84.53-84.53 0-55.49-53.06-96.47-107.14-81.43l4.07 10.81c46.25-12.16 91.56 22.89 91.56 70.62 0 40.26-32.76 73.02-73.02 73.02s-73.01-32.76-73.01-73.02c0-28.56 16.49-53.32 40.44-65.32l-4.08-10.84c-28.31 13.68-47.88 42.68-47.88 76.16 0 46.61 37.92 84.53 84.53 84.53zm0-26.51c31.99 0 58.02-26.03 58.02-58.02 0-37.25-34.81-65.01-71.24-56.47l13.2 35.1h.02c11.79 0 21.38 9.59 21.38 21.37 0 11.79-9.59 21.38-21.38 21.38-11.78 0-21.37-9.59-21.37-21.38 0-6.4 2.84-12.14 7.32-16.06l-13.21-35.13c-18.28 9.78-30.75 29.05-30.75 51.19 0 31.99 26.02 58.02 58.01 58.02zm6.38-58.02c0-3.51-2.86-6.37-6.38-6.37-3.51 0-6.37 2.86-6.37 6.37 0 3.52 2.86 6.38 6.37 6.38 3.52 0 6.38-2.86 6.38-6.38zm-59.38-119.62-4.4-11.7-153.1 16.69 27.73 74.2c2.31-.41 4.68-.63 7.1-.63 8.43 0 16.28 2.56 22.8 6.93zm-115.17 144.58c10.73-3.23 18.56-13.19 18.57-24.96 0-14.37-11.7-26.06-26.07-26.06s-26.06 11.69-26.06 26.06c0 11.77 7.84 21.73 18.56 24.96v-24.96c0-4.14 3.36-7.5 7.5-7.5 4.15 0 7.5 3.36 7.5 7.5zm-38.89-202.01 12.6-1.19c-4.4-2.24-9.31-3.44-14.28-3.44h-43.91c-8.2 0-13.08 9.3-8.33 15.71 5.81 7.84 15.66 8.75 22.8 4.21l15.74-10.01c4.61-2.94 9.93-4.76 15.38-5.28zm10.24 141.87-26.34-70.49-23.76 31.25c17.31 15.37 29.23 36.66 32.57 60.67 3.21-9 9.47-16.56 17.53-21.43zm-43.48 27.68h11.55c-1.92-21.69-12.05-41.06-27.27-54.95l-7.01 9.22c12.5 11.72 20.89 27.77 22.73 45.73zm11.55 15h-11.55c-3.76 36.75-34.9 65.52-72.63 65.52-40.26 0-73.02-32.76-73.02-73.02 0-56.93 62.61-91.92 111-62.34l6.98-9.19c-56.13-35.41-129.49 5.24-129.49 71.53 0 46.61 37.92 84.53 84.53 84.53 44.08 0 80.37-33.92 84.18-77.03zm-64.15-15h37.49c-1.71-13.11-7.79-24.86-16.75-33.73l-22.68 29.83c.6.96 1.61 3.01 1.94 3.9zm37.49 15h-37.53c-3.04 8.09-10.84 13.88-19.99 13.88-11.79 0-21.37-9.59-21.37-21.38s9.58-21.37 21.37-21.37c2.14 0 4.19.32 6.14.91l22.69-29.85c-38.57-22.19-86.85 5.87-86.85 50.31 0 31.99 26.03 58.02 58.02 58.02 29.45 0 53.82-22.06 57.52-50.52zm-57.52-1.12c3.52 0 6.38-2.86 6.38-6.38 0-3.57-2.94-6.37-6.38-6.37-3.51 0-6.37 2.86-6.37 6.37 0 3.52 2.85 6.38 6.37 6.38z"/><path d="m496.11 118.31c.3 15.48-10.82 29-26.43 32.14-4.06.82-8.01-1.81-8.83-5.87s1.81-8.02 5.87-8.83c8.36-1.68 14.55-9.06 14.4-17.16-.18-9.29-8-16.84-17.43-16.84-.02 0-.11 0-.13 0-4.72.06-8.99-2.75-10.85-7.1-10.4-24.31-45.34-24.27-55.72 0-1.85 4.32-6.06 7.1-10.76 7.1-.03 0-.06 0-.09 0h-.13c-4.01 0-7.81 1.38-10.84 3.76 8.29 3.43 14.7 9.66 18.43 16.86 8.74.85 16.65 6.05 20.88 13.74h18.72c4.14 0 7.5 3.35 7.5 7.5 0 4.14-3.36 7.5-7.5 7.5h-15.57c-1.26 13.84-13.37 24.18-27.05 24.18h-59.01c-14.76 0-27.45-11.96-27.16-27.03.26-13.49 10.86-24.6 24.14-25.9 5.77-11.11 16.87-18.46 29.41-19.52 5.42-9.25 15.25-15.38 26.12-16.04 16.38-33.77 65.11-33.85 81.53 0 16.67.99 30.18 14.74 30.5 31.51zm-105.53 41.98c6.57 0 12.28-5.28 12.16-11.75-.12-6.09-5.25-11.34-11.87-11.3-.03 0-.06 0-.09 0-7.57 0-9.88-6.77-10.46-7.9-8.28-15.99-31.96-15.41-39.14 1.39-1.71 3.99-5.62 6.59-9.96 6.51h-.11c-6.32 0-11.58 5.07-11.7 11.3-.12 6.47 5.58 11.75 12.16 11.75z"/><path d="m351.3 47.46c8.87 8.87 8.87 23.23 0 32.1s-23.24 8.86-32.1 0c-18.05-18.05-40.85-29.46-65.93-32.98-4.1-.57-6.96-4.36-6.38-8.47.57-4.1 4.36-6.96 8.47-6.38 28.33 3.98 54.07 16.85 74.44 37.22 3.02 3.01 7.89 3 10.89 0 3.01-3.01 3.01-7.88 0-10.88-57.42-57.42-150.34-57.42-207.75-.01-3 3.01-3 7.89 0 10.89 3 3.01 7.87 3.01 10.88 0 20.37-20.37 46.12-33.24 74.45-37.22 4.11-.58 7.89 2.28 8.47 6.38.58 4.11-2.28 7.9-6.38 8.47-25.08 3.52-47.88 14.92-65.93 32.98-8.87 8.87-23.23 8.87-32.1 0-8.85-8.85-8.85-23.25 0-32.1 63.28-63.28 165.7-63.28 228.97 0z"/><path d="m304.49 94.27c8.85 8.85 8.85 23.24 0 32.09-8.88 8.88-23.23 8.88-32.1 0v.01c-19.62-19.62-51.54-19.62-71.15 0-8.87 8.87-23.23 8.87-32.1 0-8.87-8.88-8.87-23.23 0-32.1 37.35-37.36 98-37.35 135.35 0zm-10.61 21.49c3-3 3-7.88 0-10.88-31.49-31.49-82.64-31.5-114.14 0-3 3-3 7.88 0 10.88 3.01 3.01 7.88 3.01 10.89 0 25.47-25.47 66.9-25.47 92.37 0 3.01 3.01 7.87 3.01 10.88 0z"/><path d="m239 134.72c11.51.98 20.51 10.89 20.51 22.58 0 12.52-10.18 22.7-22.7 22.7-12.51 0-22.69-10.18-22.69-22.7 0-13.37 11.65-23.9 24.88-22.58zm5.51 22.58c0-4.22-3.41-7.69-7.73-7.69-4.02 0-7.66 3.33-7.66 7.69 0 4.25 3.45 7.7 7.69 7.7 4.25 0 7.7-3.45 7.7-7.7z"/></g></svg>